<svg xmlns="http://www.w3.org/2000/svg" xmlns:xlink="http://www.w3.org/1999/xlink" width="500" zoomAndPan="magnify" viewBox="0 0 375 374.999991" height="500" preserveAspectRatio="xMidYMid meet" version="1.0"><defs><g/><clipPath id="ff2b2d5ce2"><path d="M 37.519531 156.203125 L 337.5 156.203125 L 337.5 218.453125 L 37.519531 218.453125 Z M 37.519531 156.203125 " clip-rule="nonzero"/></clipPath><clipPath id="a24320591a"><path d="M 45.015625 156.203125 L 329.984375 156.203125 C 334.125 156.203125 337.480469 159.558594 337.480469 163.699219 L 337.480469 211.292969 C 337.480469 215.433594 334.125 218.792969 329.984375 218.792969 L 45.015625 218.792969 C 40.875 218.792969 37.519531 215.433594 37.519531 211.292969 L 37.519531 163.699219 C 37.519531 159.558594 40.875 156.203125 45.015625 156.203125 Z M 45.015625 156.203125 " clip-rule="nonzero"/></clipPath></defs><g clip-path="url(#ff2b2d5ce2)"><g clip-path="url(#a24320591a)"><path stroke-linecap="butt" transform="matrix(0.75, 0, 0, 0.75, 37.517624, 156.201391)" fill="none" stroke-linejoin="miter" d="M 9.997335 0.00231261 L 389.955694 0.00231261 C 395.476527 0.00231261 399.950486 4.476271 399.950486 9.997105 L 399.950486 73.455442 C 399.950486 78.976276 395.476527 83.455443 389.955694 83.455443 L 9.997335 83.455443 C 4.476502 83.455443 0.00254295 78.976276 0.00254295 73.455442 L 0.00254295 9.997105 C 0.00254295 4.476271 4.476502 0.00231261 9.997335 0.00231261 Z M 9.997335 0.00231261 " stroke="#ffffff" stroke-width="16" stroke-opacity="1" stroke-miterlimit="4"/></g></g><g fill="#ffffff" fill-opacity="1"><g transform="translate(31.79883, 272.699982)"><g><path d="M 23.90625 0 L 13.390625 0 L 13.390625 -57.59375 L 26.5625 -57.59375 L 38.453125 -41.328125 L 50.328125 -57.59375 L 63.5 -57.59375 L 63.5 0 L 53.0625 0 L 53.0625 -43.484375 L 38.453125 -23.46875 L 23.90625 -43.484375 Z M 23.90625 0 "/></g></g></g><g fill="#ffffff" fill-opacity="1"><g transform="translate(108.694791, 272.699982)"><g><path d="M 12.53125 -57.59375 L 44.0625 -57.59375 L 44.0625 -47.09375 L 23.046875 -47.09375 L 23.046875 -35.5625 L 40.6875 -35.5625 L 40.6875 -25.0625 L 23.046875 -25.0625 L 23.046875 -10.515625 L 44.0625 -10.515625 L 44.0625 0 L 12.53125 0 Z M 12.53125 -57.59375 "/></g></g></g><g fill="#ffffff" fill-opacity="1"><g transform="translate(165.286759, 272.699982)"><g><path d="M 33.703125 -47.09375 L 33.703125 0 L 23.1875 0 L 23.1875 -47.09375 L 10.375 -47.09375 L 10.375 -57.59375 L 46.578125 -57.59375 L 46.578125 -47.09375 Z M 33.703125 -47.09375 "/></g></g></g><g fill="#ffffff" fill-opacity="1"><g transform="translate(222.238725, 272.699982)"><g><path d="M 12.53125 -57.59375 L 44.0625 -57.59375 L 44.0625 -47.09375 L 23.046875 -47.09375 L 23.046875 -35.5625 L 40.6875 -35.5625 L 40.6875 -25.0625 L 23.046875 -25.0625 L 23.046875 -10.515625 L 44.0625 -10.515625 L 44.0625 0 L 12.53125 0 Z M 12.53125 -57.59375 "/></g></g></g><g fill="#ffffff" fill-opacity="1"><g transform="translate(278.830705, 272.699982)"><g><path d="M 39.953125 -24.40625 C 43.316406 -25.65625 46.03125 -27.753906 48.09375 -30.703125 C 50.15625 -33.660156 51.1875 -36.914062 51.1875 -40.46875 C 51.1875 -45.21875 49.503906 -49.257812 46.140625 -52.59375 C 42.785156 -55.925781 38.757812 -57.59375 34.0625 -57.59375 L 11.65625 -57.59375 L 11.65625 0 L 22.171875 0 L 22.171875 -23.40625 L 28.65625 -23.40625 L 40.828125 0 L 52.703125 0 Z M 34.0625 -33.90625 L 22.171875 -33.90625 L 22.171875 -47.09375 L 34.0625 -47.09375 C 35.882812 -47.09375 37.441406 -46.441406 38.734375 -45.140625 C 40.035156 -43.847656 40.6875 -42.289062 40.6875 -40.46875 C 40.6875 -38.644531 40.035156 -37.09375 38.734375 -35.8125 C 37.441406 -34.539062 35.882812 -33.90625 34.0625 -33.90625 Z M 34.0625 -33.90625 "/></g></g></g><g fill="#ffffff" fill-opacity="1"><g transform="translate(56.232423, 160.649989)"><g><path d="M 11.65625 -57.59375 L 43.203125 -57.59375 L 43.203125 -47.09375 L 22.171875 -47.09375 L 22.171875 -35.5625 L 39.8125 -35.5625 L 39.8125 -25.0625 L 22.171875 -25.0625 L 22.171875 0 L 11.65625 0 Z M 11.65625 -57.59375 "/></g></g></g><g fill="#ffffff" fill-opacity="1"><g transform="translate(111.096391, 160.649989)"><g><path d="M 43.703125 -57.59375 L 28.15625 -57.59375 L 9.796875 0 L 20.875 0 L 24.1875 -10.515625 L 47.65625 -10.515625 L 50.96875 0 L 61.984375 0 Z M 27.5 -21.03125 L 35.921875 -47.453125 L 44.28125 -21.03125 Z M 27.5 -21.03125 "/></g></g></g><g fill="#ffffff" fill-opacity="1"><g transform="translate(182.952351, 160.649989)"><g><path d="M 39.953125 -24.40625 C 43.316406 -25.65625 46.03125 -27.753906 48.09375 -30.703125 C 50.15625 -33.660156 51.1875 -36.914062 51.1875 -40.46875 C 51.1875 -45.21875 49.503906 -49.257812 46.140625 -52.59375 C 42.785156 -55.925781 38.757812 -57.59375 34.0625 -57.59375 L 11.65625 -57.59375 L 11.65625 0 L 22.171875 0 L 22.171875 -23.40625 L 28.65625 -23.40625 L 40.828125 0 L 52.703125 0 Z M 34.0625 -33.90625 L 22.171875 -33.90625 L 22.171875 -47.09375 L 34.0625 -47.09375 C 35.882812 -47.09375 37.441406 -46.441406 38.734375 -45.140625 C 40.035156 -43.847656 40.6875 -42.289062 40.6875 -40.46875 C 40.6875 -38.644531 40.035156 -37.09375 38.734375 -35.8125 C 37.441406 -34.539062 35.882812 -33.90625 34.0625 -33.90625 Z M 34.0625 -33.90625 "/></g></g></g><g fill="#ffffff" fill-opacity="1"><g transform="translate(247.320316, 160.649989)"><g><path d="M 12.53125 -57.59375 L 44.0625 -57.59375 L 44.0625 -47.09375 L 23.046875 -47.09375 L 23.046875 -35.5625 L 40.6875 -35.5625 L 40.6875 -25.0625 L 23.046875 -25.0625 L 23.046875 -10.515625 L 44.0625 -10.515625 L 44.0625 0 L 12.53125 0 Z M 12.53125 -57.59375 "/></g></g></g></svg>